<svg id="Layer_1" data-name="Layer 1" xmlns="http://www.w3.org/2000/svg" viewBox="0 0 181.34 188.61"><defs><style>.cls-1{fill:#fff;}</style></defs><title>logo_complete</title><path class="cls-1" d="M456.74,373.62a6.72,6.72,0,0,0-.39-1.48q-.11-.33-.23-.6a5,5,0,0,0-.29-.54c-.11-.18-.24-.37-.39-.57s-.33-.43-.54-.68l-.13-.14-.12-.12-.14-.14-.18-.2q-.47-.53-.84-1a7.91,7.91,0,0,1-.63-.87,5.07,5.07,0,0,1-.66-1.53,7.11,7.11,0,0,1-.23-1.81,3.09,3.09,0,0,1,.2-1.31.72.72,0,0,1,.71-.4.77.77,0,0,1,.65.29,1.31,1.31,0,0,1,.23.81v2.52h3v-2.24a4,4,0,0,0-1-2.92,3.93,3.93,0,0,0-2.92-1,3.4,3.4,0,0,0-2.81,1.21,5.46,5.46,0,0,0-1,3.5,9.78,9.78,0,0,0,.13,1.64,6.79,6.79,0,0,0,.42,1.46,8.33,8.33,0,0,0,.76,1.41,16.66,16.66,0,0,0,1.13,1.49l.92,1.09q.37.45.6.77a6.26,6.26,0,0,1,.37.57,3.18,3.18,0,0,1,.22.49,4,4,0,0,1,.12.39,3.75,3.75,0,0,1,.08.43c0,.16,0,.33,0,.52s0,.42,0,.67v.94a6.55,6.55,0,0,1,0,.89,1.64,1.64,0,0,1-.17.56.66.66,0,0,1-.31.3,1.2,1.2,0,0,1-.49.08.8.8,0,0,1-.63-.26,1.09,1.09,0,0,1-.23-.75,15.19,15.19,0,0,0-.16-2.33,5.19,5.19,0,0,0-1-2.08,5.76,5.76,0,0,0-1.56-1.39,8,8,0,0,0-4.53-1.1,6.65,6.65,0,0,0-3.93,1.46,4,4,0,0,0-1.27,1.59,5.38,5.38,0,0,0-.2,2,7.62,7.62,0,0,0,.67,3.45,1,1,0,0,0,.15.27c.07.11.14.22.21.32a3.5,3.5,0,0,0,3,1.37,4.38,4.38,0,0,0,1.72-.32,3.38,3.38,0,0,0,1.28-.94,4.23,4.23,0,0,0,.8-1.51,6.86,6.86,0,0,0,.28-2v-4.12a4.16,4.16,0,0,0-3-.41v5.18q0,1.56-1,1.56a.89.89,0,0,1-.84-.42,3.18,3.18,0,0,1-.24-1.46v-2.86a3.23,3.23,0,0,1,.35-1.63,2.58,2.58,0,0,1,1.76-1.12c1.27-.22,3.81-.09,4.46,1.74a10.82,10.82,0,0,1,.27,2.75c.08,1.54-.32,3.23.81,4.48a3.64,3.64,0,0,0,2.84,1.07,4.42,4.42,0,0,0,1.7-.31,3.41,3.41,0,0,0,1.27-.89,4,4,0,0,0,.8-1.42,6.1,6.1,0,0,0,.28-1.91v-.66a12.76,12.76,0,0,0-.12-1.84" transform="translate(-359.6 -206.19)"/><path class="cls-1" d="M442.32,369.91v-6a2.52,2.52,0,0,1,.25-1.25.79.79,0,0,1,.72-.44,1,1,0,0,1,.83.35,1.47,1.47,0,0,1,.29,1v6a7,7,0,0,1,3,.28v-5.26a7.09,7.09,0,0,0-.27-2,4.41,4.41,0,0,0-.78-1.53,3.36,3.36,0,0,0-1.25-1,4,4,0,0,0-1.67-.33,4.14,4.14,0,0,0-1.75.35,3.49,3.49,0,0,0-1.29,1,4.55,4.55,0,0,0-.8,1.64,8.19,8.19,0,0,0-.27,2.21v7.26a6.44,6.44,0,0,1,3-2.2" transform="translate(-359.6 -206.19)"/><path class="cls-1" d="M365.76,369.5v0a3.69,3.69,0,0,0,1.22-.59,1.91,1.91,0,0,0,.62-.9,4.8,4.8,0,0,0,.19-1.49v-2a6.3,6.3,0,0,0-.45-2.58,2.94,2.94,0,0,0-1.39-1.47,5.45,5.45,0,0,0-2.43-.47h-3.72v20.51h4.5a3.8,3.8,0,0,0,1.92-.46,3.13,3.13,0,0,0,1.26-1.34,4.38,4.38,0,0,0,.45-2v-4.22a3,3,0,0,0-.5-1.84A3.3,3.3,0,0,0,365.76,369.5Zm-.87,7.05q0,1.39-1.26,1.39h-.84v-7.22h.82a1.16,1.16,0,0,1,.92.43,1.61,1.61,0,0,1,.36,1.07Zm0-9.7a1.49,1.49,0,0,1-.32,1,1.1,1.1,0,0,1-.88.38h-.89v-5.79h.7a1.31,1.31,0,0,1,1,.42,1.54,1.54,0,0,1,.38,1.08Z" transform="translate(-359.6 -206.19)"/><path class="cls-1" d="M387.07,359.89v13a11,11,0,0,1,3,1.29V359.89Z" transform="translate(-359.6 -206.19)"/><path class="cls-1" d="M382.56,372.32s0-3.3,0-4.86v-7.6h-3v11.47c0,.42,0,.95,0,1.36A9,9,0,0,1,382.56,372.32Z" transform="translate(-359.6 -206.19)"/><path class="cls-1" d="M382.56,374.1a8.22,8.22,0,0,0-3,.69v5.62h5.5v-2.56h-2.52Z" transform="translate(-359.6 -206.19)"/><path class="cls-1" d="M384.22,373a18.74,18.74,0,0,0-5.5.41c-.59.14-1.18.29-1.77.44l-2.13-14.16h-2.6L369,380.43h3l.28-2.54a10.06,10.06,0,0,1,2.39-1.37l.39,3.91h2.92l-.8-5.3a7.58,7.58,0,0,1,2.19-1.07,12.66,12.66,0,0,1,7.73-.07v6.43h3v-4.91a8,8,0,0,1,.83.71,9.65,9.65,0,0,1,2.8,8.61,5.76,5.76,0,0,1-2.06,3.78,4.26,4.26,0,0,1-3.86.9c-.27-.1-.44-.39-.71-.44-.45-.09-.57.62-.39.9s1,.48,1.47.5a5.75,5.75,0,0,0,3.38-1.18,5.4,5.4,0,0,0,2.06-2.62,9.74,9.74,0,0,0-.14-7.61A10.61,10.61,0,0,0,384.22,373Zm-10.85,1.89-.84.23,1-8.57.87,8Z" transform="translate(-359.6 -206.19)"/><path class="cls-1" d="M403.4,360.23a4.05,4.05,0,0,0-1.32-.45c-.35-.06-.75-.16-1,.18a2.71,2.71,0,0,0-.38,1.2,4.44,4.44,0,0,0,0,.61,3.46,3.46,0,0,0,0,.69,1.3,1.3,0,0,1,.64-.2q1,0,1,1.62a1.94,1.94,0,0,1,0,.35V366h3V363.8a4.46,4.46,0,0,0-.49-2.15A3.5,3.5,0,0,0,403.4,360.23Z" transform="translate(-359.6 -206.19)"/><path class="cls-1" d="M426.31,359.89a6.39,6.39,0,0,0-.14.8c-.13.66-.45,3.46-.48,4.13s-.52,4.11-.73,7.85l.1,7.76h2.83L427,359.89Z" transform="translate(-359.6 -206.19)"/><path class="cls-1" d="M503.52,364.75v-2.24h2.4v-2.62h-4.41A14.43,14.43,0,0,1,503.52,364.75Z" transform="translate(-359.6 -206.19)"/><path class="cls-1" d="M538.22,301.2c.62-.15,1.42-.09,1.92-.52a16.07,16.07,0,0,0-1.35-1.19c-.45-.32-2.8-1.22-1.62-1.78.23-.11,2.51.3,2.52.12.07-1-1.29-.91-1.94-1.55s-.77-1.63-1.79-1.58c.44,0,.31-.91,1.21-.49.54.25.83,1.26,1.47,1.28s.37-1,.38-1.45a10,10,0,0,0,1.27,1.15c.77-.55-.16-1.64-.76-1.83l-.6-.19.09-.62c-.94-.81-2.69-2.55-.35-2.71,0-.9-.93-1.35-.65-2a9.06,9.06,0,0,0,2.68,1.27c.09-1.08-.91-3.13-2.22-3.08a2.66,2.66,0,0,1,.22-1.33,3.84,3.84,0,0,0,.17-.64c-.94-.17-2,.89-2.72,1.4a2.59,2.59,0,0,0-2.58-2.43c.06,1.13-1.32.6-1.39,0,0-.23,1.54-1.28,1.55-1.31,0-.7-1.14-.67-1.57-1.33-.2-.3,0-.69-.21-.88-.39-.35-1.24-.3-1.87-.63-.4-.22-.78-.79-1-.85.1,0-.37.31-.55.29a9.28,9.28,0,0,0-1.76-.19c-.36-.31-.28-1.28-.58-1.73-.44-.65-.78-.61-1.46-.89.4,1.4-.71.83-1.8.91-1.44.1-2.86,1.18-2.56-.3l-.38-.59-.09-.69c-.58-.57,1.88-1.57,0-1.87.12-.59,1.31,0,1.43.74l.68-.24.6.4c1.53.58,1.28-.93,2.5-1.24l.36,1.47c.63-.9,1.64.35,2.05.12.82-.47.07-1.11,0-2,1.28.36,1.54,3.06,1.85,4.37.9-.16.81-.92,1.22-1.39.3.41.06.43.25,1,.7-.16.73-.72,1.14-1.06.23.31.28.92.8.74,1-2.55-2.27-3.6-2.87-4.74.62-.12.69.65,1.25.63l.26-.63.59-.35-.07-.29c1.2.22,1.85,1.34,3.26,1.22,0-.74-.44-.92-.66-1.39,1.33-.43-.62-2-1.45-2.13-.59-.09-1.26.39-1.8.28-.85-.16-.6-.84-1.24-.63s-.52,1.53-1.18,1.53c-.25,0-2.16-1.86-1.49-2.28.87-.55,1.28,1.19,1.83,1.73.23-1.24-.84-2.44-.64-3.27.7.36,1.11,1.19,1.9,1.4-.38-.81.32-1,.41-1.5a8,8,0,0,1-2.18-3.2c.84.06,1.32.71,2.42.34a3.81,3.81,0,0,0-2.63-2.47l-.6.43-.1-.73c-.85-1.41-1.36-3.39-3.25-3.09-.4,0,.34.79-.3.69l.24.68-.4.6c-.2,2.09-1.77.53-2.79.06.13-.58.34.36.77,0l-.09-.55.13-.55c0-1,.9-1.54,1.29-2.34-1.26.55-1.31-1-2.12-1-1,0-1.31,1.79-2.57.94a1.5,1.5,0,0,1-.22,1c-1.37-.62-.35-2.91-2.44-3,.18-.43.87-.55.63-1.24-1.63-.63-2.33,1.3-2.9,2.11-.07-.29-.45-.09-.44-.52,1.39-.51-.79-2.75-1.52-3,.34-.15.38.19.77,0-.08-1-.63-1.17-.8-2,.42,0,.89.53,1.25,0-1.23-1.58.54-2,1.73-2.45-.2-1.39-2.48.35-3.08.13.1,0-.74-.84-.58-1.1.46-.75,1.94.41,2.64,0a2.44,2.44,0,0,0-1.57-1.33.42.42,0,0,0,.37-.4,11.52,11.52,0,0,1-5.23-1.67c.82-1.11,2.54-.42,3.6-.57.15-.92-1-1.3-1.53-1.8,1.48-.24,2.61.09,4.14-.24-1.16-1.18-2.81-1.54-4.39-2,.23-.57,1.62-.44,1.58-1.17s-2.23,0-2.83.54l0,.68-.44.52c.82,1.42-2.31.47-1.61-.23l-.25-.69.22-.7c-1.57,0-.75-3-2.55-2.8.81,2.37-2,1.58-2.17.69-.12-.62,1-1.11.85-1.61s-3.3-.55-3.22-1.08,1.44-.56,1.84-.76c-.07-1-1.44-1.25-2.37-1.44,1.57-.53,1.92,1,3.18.93-.65-1.74,1.48-.92,2.46-.76-.89-2.33-4.37-2-6.48-1.05-.75-1.79-1.72-3.21-3.8-2.8.05.85,1.61.88,1.9,2-1-.9-2.55.13-3.4-1.19.37-.07.71-.15.84-.36-.28-1.06-1.39-.73-2.12-1,.59-.14.81-.51,1.4-.65-.7-.69,0-1.11,0-1.72-2.16-.52-2.52,1.86-3.23,2-1.22.31-3.59-4-5.49-2.08,1.6,1.32,1.29,2,.5,3.3-.32-.18,0-.52-.25-1-1.22.23-1.89-.44-2.82-.71,1-.19,1.59.27,2.53.16.16-1.53-1.75-1.36-3.08-1.11l-.56.25-.54-.3c-1.11,1.35-.54-.5-.91-1.18a1.18,1.18,0,0,0-.48-.43l.54,3.79c-.3.45.45,1.55-.17,2-.77-.73-.85-2-2-.77a1.15,1.15,0,0,0-1-.31c-.16.58.42.81.75,1.16a3.19,3.19,0,0,1-.91.51,1,1,0,0,0,0,.39,3.05,3.05,0,0,1,1,1.26c-1,1.23-1.68-.37-1.59-1.25,0-.48.42-2.81-.8-2,.1.12.08.28.14.38-.33.31-.75.25-1.22,0-.86-1.06.62-.89.47-2.21-.07-.61-1.9-1.89-2.31-1.1.76-1.46-.36-2.28-1.65-2.48a5,5,0,0,1,1.45-1.57,4.61,4.61,0,0,0,2.33,2.48,9.33,9.33,0,0,0-.72-2.31c.92.78,2,0,3,.41a5.85,5.85,0,0,0-1.05-1.16,9.21,9.21,0,0,1-2.4-1.75c.49,0,2.44-1.13,2.44-1.49,0-1.55-2.85-.21-3.27-.24-1.91-.11-1.25-2.63-2.31-3-.64-.25-1.68,1.49-1.23,1.64-1.08-.52-2.29-.47-3.21-1.61a9.45,9.45,0,0,1,2.63-1.16,1.64,1.64,0,0,0-.54,1.67,19.84,19.84,0,0,0,3.57-2.18c-.91-1.14-2.92-2.12-3.63-.46-1.17-.82-2,.55-3.23.19.07-1.09,1.33-1.89,1.8-2.89-1.13-.33-1.8.78-2.86,1.53.48-1.28-.58-3.78-1.78-1.81-.7,1.14,1.06,3.19,1.37,4.07l.75.55-.83.4c.4.39,1,1.64,0,1.77-.5.07-1.18-1-1.34-1.35a2.18,2.18,0,0,0-.4,2.1l-.34.29c-.31.27-1.82,1.38-2.14.9-.08-.12,0-.35.17-.63,0,0,.06,0,.08,0l-.05,0c.43-.71,1.33-1.7,1.45-1.94a1.39,1.39,0,0,0-1.73,0,7.35,7.35,0,0,0-.36-.71,2.51,2.51,0,0,0-1.23,1.16c0-.77.56-1.37.23-2.18s-1-.87-1.56-1.34c-1,1,1.66,4-1,3.38a3.13,3.13,0,0,0-.37-2.23c-2.07-.19-1.56,2.16-3,2.6A12.2,12.2,0,0,0,448,213c-.47,0-1.56.42-1.54-.26s1.11-.9,1.07-1.76c-.64-.07-1.18.35-1.81.3a3.66,3.66,0,0,0,.57-1.26,9.41,9.41,0,0,1,.68-1.61,28.07,28.07,0,0,1-2.19,2c-.05-.46-.1-1-.46-1.19s-1.13.27-1.42.56a5.94,5.94,0,0,0-.28-3.14c-.84-.12-.38,1.58-.48,2.07-.19.9-.71.56-1.18,1.22.47-1.34-.66-4.69-2.51-3.54-.41.25-.46.77-.56,1.24a8.06,8.06,0,0,1-2,.78c.25-.59,0-1.61.23-2.23,0-.06-1.27.18-1.49.59a4.73,4.73,0,0,0-.16,1.54,1.54,1.54,0,0,0-1.79,1.3c-.72.08-.9-.68-1.56-.69s-.15.91-.34,1.28c-1.65-1.77-1.87.36-3.76.37-.06-.48.87-.62,1.13-1,.13-.17.3-1.51.18-1.46a9.2,9.2,0,0,0-1.78,1.33,5.26,5.26,0,0,0,1.37-2.75c.05-.26-1.69.2-1.78.24-2.45,1.08-1.57,3.15-1.8,5.23-.91-.16-2.85-.6-3.47.37s1.14,1.91,1.72,2.46a27.68,27.68,0,0,0-2.84.48c-.56-.39.36-.75.11-1.44-2,.13-2,1.58-2.94,2.42-.24-1-1.91-2.69-2.49-1.31-.42,1,2.76,2.63,2.66,4.1-1.68.13-1.07-1.15-2.34-1.54-2-.61-6.63,1.47-5.19,3.29-.25-.31,2.37,0,2.45.1.44.67-1.39,3.24-2.35,3.31.09,1,1.18.42,1.75.65-.51.24-2.69,1.89-1.89,2.62.06.06,2-.89,2.4-.09.29.52-3.09,4-.94,5.25.84.5,2.59-2.07,3.94-2.43.25-.07.58.45.9.42.89-.08.48-.77,1.55-.32-.17.9-.53,3.19.72,3.49.73-.3.27-1.39.84-1.79,1.17.68.57,2.12.91,3.45,4.31-1.8,2.16,1.63-1,.82.24.45,1.35,1.15.59,1.9-.3.3-.88-.45-1.67-.26-.62.15-1.18,1.2-1.55,1.33-2.57.9-5.35-1.2-3.12-2.39.11-.63-.24-.29-.35-.74-.23-.85.57-1.41.18-2.06s-1.6-.21-3.15-.56c-1.23-.28-5.94-2.29-5.55.54-1.51-.83-2.85-2.76-5.17-1.56.11.85.74.91,1.4.92-1.1.62-2.79.85-2.32,2.5.59.34,3.29-1.67,3.18-.25l.24.66,0,.7c.39.94,1.06,1.44,1.18,2.79-.92.47-.72-.78-1.52-.5-.78,1.44-2.29,3.93-4.22,3.09l.14.33-.21.29c-.47,2.26-2.53-1.2-4.16.45.4,1.32,2.09.58,2.34,1.54s-1.88,1.64-1.77,3.19c1.28-.49,1.26,1.1,1.29,1.35.13,1.35-2.43,2.74-2,4-.65-.65-.48-1.27-.67-2.29-1.43.4-.77,4.32.91,3.45.06.49-.46,1-.74.36-.54.28.25.6.2,1a3.31,3.31,0,0,1-2.14-.57c.05,0-.25-.58-.12-.58-1.25,0-1.23,1.13-1.7,1.56-.27.25-.84.2-1.12.43-1.19,1-.6,2.71-1.3,3.5-1.43,1.61-3,0-5.24,1.08-.2.73.12.85.63,1.08-1.4.81,1,1.88.6,2.91-.23.61-3.2,1-4.31.68l-.42.89-.74-.66a3.17,3.17,0,0,0-2.12,2.46c.17.59,1,.13,1.63.07-.77,1.36-3.12-.29-3.33,1.5,3.39-.1,2,3.26-1.15,2.26-.56-.18-.73-.93-1.21-1-1.26-.1-2.94,1.62-2.8-.84l-.92.29.18-.94c-.39-.89-.52-3.7-1.85-4.07-2.31-.64-1.34,2-.06,2.64-1.33.19-2.64-.18-3.26.87,1.06.42,2.59.14,3.42.91.1.09-2.77,1.58-2.78,2.11,0,1.45,3.26.28,3.26.22.1,1.52-.85,2.35-1.3,3.5.23-.44-1.79-1-2.1-.38-.51,1.07,1.79,2.52.41,4-.3.32-3.42,1.33-2.31,2.5.22.23,1.87-.08,2.6-.41,0,0-.08.08-.1.13a7,7,0,0,0-.37,1.21,4.53,4.53,0,0,0-.63,2.41,1,1,0,0,1,.81-.12c-.24.86-1,1.22-.83,2.24.09.53.44.59.15,1.06-.19.31-.7.39-1,.67a4.54,4.54,0,0,0-.63,1.27c-.13.32-.87,2.62-.46,2.81,1.1.52,1.59-.94,2.4-1.31.39,1-.82,2.2-.59,3.24.31,1.41,1.55-.59,2-1,.13.55.86,1.92,1.52,1.91.82,0,.36-1.55,0-2,.28.4,1.73-.3,2.1.12.87,1-.67,2.12.37,3a1.33,1.33,0,0,1,2.18-.28c.33.52-.17,1.08-.2,1.57a3.56,3.56,0,0,0,.46,2.22,3.22,3.22,0,0,0,.36.46c-1.91.07-3.74,1.24-3,1.9.53.5.88-.53,1.53-.46,0,.46.33.92,0,1.31s-1.38.38-1.8.69c-.91-.87-1.19-3.42-2.89-3.2.06.68.6,1.31.67,2-.9-.62-1.64-1-2.73-.48-1.39.72-1.61,2.53-1.52,4.23.77-.75,1.27-1.86,2.54-2,0,.51,0,1,.52,1,.36-.23,1-1.11,1.25-.82-1.34,1.31-1.9,4.15-2.2,5.78.47.28,1-.37,1.13.14-.26.6-.89.72-1.15,1.33,1.4.56,2.36-1,3.32-.4.07,0,.36,1.24.45,1.38-.24.16-2.12,2-2.19,2-1.58.46-1.08-2.26-2.18-2.4a3.81,3.81,0,0,0,.37,2.74c-.31-.62-2-.27-2.46-.24-.14,0,.44.85.55.92a3.54,3.54,0,0,0,1.68.33c-.44.82-1.47,1.21-1.31,2.39.59-.3,1.61-1.3,2.31-.77,1,.76-2.63,4.82-.19,5.38,1.62.37,1.14-2.13,1.8-2.56,0,1.42.44,2.47,1.95,2.7.32-.36,0-1.17.25-1.93,3.11,0-.39-5.62,1.54-7,0,.61.61,3,1.47,2.64,1-.4.29-3.78.55-4.35.45-1,1.44-.65,2.1-1,.12,1-2.72,4.48-1.5,5.38s2.63-3,2.48-4.11c0-.37-.49-.46-.4-.71s.89-1,1.25-.82-.19,1.37.6,1.71c.57.24.68-.51,1-.2s.73,3.84.82,3.87c1,.24,1.91-3.27,1.52-4.23-.29-.69-2.41-1.37-2.35-2.1.08-1.13,2.06-.23,2.44-1s-1.34-1.7-2.08-2.21c0-.86.89-.68,1.48-1s.67-1,1.69-1.06a4.77,4.77,0,0,0,1.73-.3,2,2,0,0,1-.78,1.22c.4.63,1-.43,1.4,0-1.37,1.86,1,2.16,1.75,3.86.4.9-.39,1.5.4,2.2,2.09-1,.57-3.4,2-4.86.8,1.63,3,3.05,3.3,1.23.58.08,1.1.86,1.65,1.19a2.3,2.3,0,0,0-.36-3.85c-.28-.18-1,.41-1.53.1-1.13-.71-1.12-2-1.51-3.08.84,1.57,3.52,1,3.39,2-.24,2.05,7,1,5.91,4.17.38-.85,1.42-.38,2-.93.75-.72.81-2.71.43-2.87-1.26-.55-1.64,1.88-2.5,2-.36-1.26-1.2-2.58-1.25-3.81.42.1.82.34,1.27.09l.08,0a.94.94,0,0,0,.94-.35,3.88,3.88,0,0,0,.84-1.19c-.13,1-1.33,1.59.28,2.79,0,0,.79-.53,1.06-.4,1.32.64.45,3.36.4,4.38.52-.15,1-.7,1.41-1,.19.45,1.08,5.7,1.71,5.47,1.44-.53.41-1.91.54-2.74,0-.19.6-.52.72-.81.34-.86-.49-.72.41-1.25.42-.25.73,0,.89-.61a1.79,1.79,0,0,0-.43-1.25,5.77,5.77,0,0,0-2.25-1.73c1.42-.24,2.37,1.33,3.74,1.23,1.92-.15-1-3.3-1.6-3.68,1.29.77,2.94.52,1.91-1.32.8.35,3.65,1.48,3.79.14.17-1.55-6.58-3.68-5.61-1-.35.48-.58-.13-.89,0,.12.52.44,1.06.1,1.53a16.61,16.61,0,0,0-2.52-1.4c.22-.31,1.14-.56.61-1-3.1.13-2.87-1.28-3-4l0,0c1.38-.35,2.45,2.24,3.87,1.43.09.76-.21,2,.52,2.34.14.06,1.28-.69,1.47-.74,1.09-.23,3.37.65,3.82-.11-1.11-1.94-2.44-1.7-3.72-2,.51-.24.39-.55.72-.81-.55-.44-1.46-1.11-.71-1.73.81.71,1.61,1.58,2.54,1.15a7,7,0,0,0-1.59-2.65c1.19.43,1.91,1.69,2.88,3.19,2,3.09,2.77,1.26,5.52,2.95,1.15.71,1.72,2.89,2.79,3.87,2.46,2.25,6.43,3,9.61,3.61,5,3.83,11,6.67,12.73,13.72,4,2.89,3.83,4.12,3.43,8.47s-2.9,9-3.16,12.86c-.22,3.44-1.28,4.34-3.76,6.27a34.76,34.76,0,0,1-8,5.1,19,19,0,0,1-4.68,1.23,15.53,15.53,0,0,1-5.28-.28c-1.23-.31-2.46.11-3.69.2a25.4,25.4,0,0,1-3.18.29c-.44,0-.89,0-1.33,0a5.43,5.43,0,0,0-1.93-.17c-.82.19-1.63.42-2.46.56-1.7.3-3.56.48-5,1.61a17.41,17.41,0,0,0-1.42,1.17c-.42.42-.78.91-1.18,1.36a8.09,8.09,0,0,0-1.31,2.06,6.23,6.23,0,0,0-.49,2.6v11.5a5.43,5.43,0,0,0,.5,2.4,3.7,3.7,0,0,0,1.41,1.59,4,4,0,0,0,2.11.55,4.61,4.61,0,0,0,1.68-.3,3.72,3.72,0,0,0,1.32-.87,3.68,3.68,0,0,0,.84-1.35,5.09,5.09,0,0,0,.28-1.73v-2.6h-3v3.1a1.29,1.29,0,0,1-.3.87,1,1,0,0,1-.77.35,1,1,0,0,1-.81-.42,1.65,1.65,0,0,1-.32-1V365.14c0-1,0-2,0-3a10.12,10.12,0,0,1,.1-1.64,5.11,5.11,0,0,1,3-3.51,5.72,5.72,0,0,1,1.09-.2c.83-.14,1.66-.1,2.49-.22a11.09,11.09,0,0,1,2.73-.22,9.1,9.1,0,0,1,1.67.33,6,6,0,0,0,2.17.2c.64,0,1.27.06,1.9.09s1-.12,1.58-.15c1.9-.11,3.75.37,5.64.37.93,0,1.85-.22,2.78-.2.72,0,1.73,0,1.12.8a10.74,10.74,0,0,0-.75,1c-.11.19-.19.39-.31.58a6.26,6.26,0,0,0-.59,2l0,.16-2.34,9.19h0l-2.5-10.71H418l-1,20.54h2.77l.18-11.37h0l2,9.1h.7l.93-4.1c1.23-5.92,1.43-10.23,1.88-13a10.56,10.56,0,0,1,.24-1.21,4.3,4.3,0,0,1,2.24-2.5c.54-.24,1.11-.44,1.67-.68a26.6,26.6,0,0,1,3.41-.95,11.11,11.11,0,0,1,6.45,0,9.67,9.67,0,0,0,3.13.32c.87,0,1.7.12,2.56.18a7.57,7.57,0,0,0,2.45,0,14.19,14.19,0,0,1,2.38-.15,11.49,11.49,0,0,1,7,1.83,18,18,0,0,1,1.61,1.25c.27.21.54.42.82.62a8.84,8.84,0,0,1,1,.77,8.53,8.53,0,0,1,2.76,5.11v-3.19h2v-2.63h-2.55a6.4,6.4,0,0,1-3.34-.89c-.29-.18-.67-.47-1-.65a11,11,0,0,1-1.13-.85,3.42,3.42,0,0,1-.88-.89c-1.28-2.12,4.74-1.81,5.61-1.8,2.31,0,4.56.61,6.86.76.75,0,1.51.11,2.26.23a19.71,19.71,0,0,1,2.69.88,11.46,11.46,0,0,0,3,.17,9.17,9.17,0,0,1,2.44.49c1.75.47,3.87-.12,5.57-.46,1-.21,2,.3,3,.37.81.05,1.62-.14,2.47-.1,1,.05,2-.25,3-.21s1.86.52,2.82.59a5.37,5.37,0,0,1,2.65.81c1.38.93,1.66,3.58,1.65,5v17.16h3v-9.25h2.22V368.6h-2.22c-.08-2.44-2.33-9.33-4.43-10.54-.16-.09-1.69-1-1.71-.87,0-.3.43-.45.68-.51a6.8,6.8,0,0,1,1.83-.06c1.35.09,2.31.55,3.66.14-1.56.08-3-.34-4.56-.38-1.22,0-2.45.07-3.67,0-.65,0-1.32-.16-2-.19-2.41-.1-4.53.15-6.87-.64-1.49-.51-2.87.32-4.35.28a15.66,15.66,0,0,1-4.21-.57c-3.05-1-5.79-2.12-9-3a14,14,0,0,1-9.71-8.44,18.09,18.09,0,0,1-1-6.06,40.26,40.26,0,0,1,.32-8.11c.36-4-.69-7.51,1.29-11.17,1-1.84,1.63-1.43,2.07-3.93a21.14,21.14,0,0,0,.06-2.76,11,11,0,0,1,.75-3.07c.1-.33.17-.65.25-1l.88,1.65c.94.15.54,2.51,2.64,2.2.34-.61-.18-.7,0-1.18.06-.22.74,0,.87-.12.29-.28.09-.44,0-.83-.06-.55-.38-1.62.17-2,.8-.61,1.07,1,1.19,1.45-.21-.83,1.5-.95,1.92-.72.68.37,1.35,2,.19,2.18.59,0,.83.92,1.5.71.94-.3.55-1.78,1.72-1.66.47,1.17-.15,2.37,1.23,3.1.4.21,3.73,1.22,3.77,1a2.73,2.73,0,0,0-1-2.3c-.4-.34-1.38-.58-1.58-1.08s.57-.25.55-.87c0-.86-1.37-.71-1.38-1.18s1-.88,1.22-.87.19.45.51.63a6.29,6.29,0,0,0,3,.61c1.25-.19.52-1.14.18-1.92a3.59,3.59,0,0,0,1.49-.33l0,0c1.2.94,2.07,1.7,1.93,1.81.18-.14,1.68-1.64,1.29-2,.76.63.83,1.48,1.21,2.35s.74,1.63,1.12,2.47a3.14,3.14,0,0,0,.9-2.24c0-.63-.25-2.07,0-2.42.74.87,1.36,3.62,2.75,3.68.88,0,1.35-2.09,1.43-2.66a3.5,3.5,0,0,0,.9.67c.68-.63.22-2,0-2.75s-1.14-1.4-1.31-2.24a3.51,3.51,0,0,1,1.63-.33c.61.1,1.1.54,1.76.55-.11-.64-.76-.65-1.17-1,.31-.31,1.06,0,1.2-.56.24-1-3.39-1.16-3.69-2.31a4.92,4.92,0,0,1,3.7.19c.38-1.65-3.13-1.4-3.79-2.55-.13-.39,1-.43,1-1.44-2.44-1.21-2.57,4.85-3.76,1-.38-1.21-.84-2.34-3-2.28.13,0-1.72,1.05-2.42.25s.66-1.27.5-2c-.09-.42-1.35-1.16-1.7-1.3a11.68,11.68,0,0,0-2.8-.55,1.16,1.16,0,0,1,.88-.43,3.32,3.32,0,0,1,1.51-2c-.89-1.07-2,.28-3,.21s-1.29-1.67-2.09-2.14c.31.19,1.28-2.17.82-3.3.17-.2.36-.39.55-.58a2.25,2.25,0,0,1,.33,1c-.13-.71,1.65-1.7,2.18-1.21s-.69.62-1,.8a1.49,1.49,0,0,0-.69,2,13.74,13.74,0,0,1,1.52-.72,3.2,3.2,0,0,0,1.35-1.46c.35.24,1.91,2.23,1.58.56-.17-.84-.77-1.52-.93-2.36.06.34,1,.08,1.22,0a3.17,3.17,0,0,0,1.41-.87c-.57.59.84,1.38,1,1.74.34.72,0,1.65.47,2.33a15.68,15.68,0,0,0,.57-2.85c.92.52.81,2,1.19,2.86a3.59,3.59,0,0,0,.92,1.28c.8.57.66-.34.7-.95a5.59,5.59,0,0,1,.53.89c.24.4.49.63.79,0a7.27,7.27,0,0,0,.3-2.49c.24.06.33.26.57.35s1.49.32,1.38-.34c.18,1-1.44,3.13-.45,4.53.92.31,1-.35,1.58-.5-.75,1.42,0,3.61-.88,4.48.85.85.53-.57,1.19-1s1.42.25,1.81-.69c.23-.55-.74-1.32-.67-2s.47-.93.92-1.36c.13-.13,1.06-1.24.88-1.41.58.54-.17,2.33,1.15,2.3-.29.79-.85,1.48-1.09,2.29-.07.25-.31,2.46-.09,2.47a1.84,1.84,0,0,0,1.09-.24c.22-.13.46-.62.79-.45s.12,1.54.15,1.92c.49,0,.74-.78,1-1.11a5,5,0,0,1,1.17-1c.47.43-.65,1.29-.91,1.52a2,2,0,0,0-.76,1.72,4.39,4.39,0,0,0,.67-.17c-.22.6-.79,2.52-.31,3.11.35.43.57-.35.79-.69.46-.7,1.12-1.32,1.63-2a5.23,5.23,0,0,1,.88-.91,11.62,11.62,0,0,0,1.07-.54c-.69,1.31.17,4.59,1.53,4.29,1.08-.24,1.57-3.64,1.56-4.46a3.66,3.66,0,0,1,0-1.25,5.5,5.5,0,0,1,1.41,2c.14.47,0,1.31.18,1.8,0,1.14,0,2.49.25,2.45,1.23-.19,1.46-1.6,1.81-2.87,1.18.12.7,1.4.44,2.22.51,0,.6.44,1.27.35-1.07,1.19-2.59,1.84-2.41,4.55.93.46,2.57-1.77,3.81-2.37.07.22.16.45.26.68-1.81.42-4.72,4.53-3.81,5.64,1,1.26,3.17-1.79,3.75-2.68.19,2.56,2,1.7,2.82.06-.23,1.28-.19,3.78-.34,5.63,1.3,0,2.44-3.14,2.62-4.32.09-.58,0-1.57.49-2a3.84,3.84,0,0,1,.58.31c.16,1.42-.41,3-.51,4.57.86.56.84-2,1.16-2.93.29-.48.67.62.78.95a1.35,1.35,0,0,0,.08-1.41,5,5,0,0,0,.35-1.94c.79,0,1,1.49,1.64,1.3.31-.1.71-1.27.87-1.58a2.18,2.18,0,0,0,.2-2c-.12-.32.82.11.87.15a1.14,1.14,0,0,1,.36.78c.1.84-.58,1.65-.61,2.48s.17,2.43.86,1.77.55-1.8.73-2.52c.32-1.29.88-.28,1.27.58-.07-.14.62-1.61.6-2,0-.64-.66-1.24-.15-1.75s.7.12,1.39,0c.46-.1,1.14-1,1.54-.07l.61.26.08.66c2.72,0-.44,1.51-.23,2.86,1.67.29,1.95-2,3.56-1.34-.29-.12-1.16.67-1.4.85.12.35.4.55.57.88a10.65,10.65,0,0,1,.33,1.24,1.71,1.71,0,0,0,1.08-1.39c1.1.36,1.61,3.25,3.14,3.06C541.29,304,539.82,303,538.22,301.2ZM414.46,224.52c-.9.46-1.33-1.09-2.26-1.15.7-.1,1.73-2,2.52-1.53C415.29,222.22,415.05,224.22,414.46,224.52Zm-44.3,69.77c-.42-.58-1.22-.77-1.12-1.85,2,.46,1.8-1.25,3.1-1.46a2.63,2.63,0,0,1,.06.27l.14.07C372.09,292.78,371.62,294,370.16,294.3Zm8.49-23.78c.3.11.61,1.34,1,1.82C376.81,273.37,376.81,269.82,378.65,270.51Zm-1,36.4a1.77,1.77,0,0,0-1.12-.37c1.61-1.71-.92-.51-1.12-2.23.9.15.81-.68,1.87-.37-.13.75.08,1.16.75,1.11A2.4,2.4,0,0,1,377.65,306.91Zm3.06-8.17c-.21-.51-1.1-.85-1.34-.23s.55,1.11.4,1.73a2.38,2.38,0,0,0-1.8-1,8.18,8.18,0,0,0,1.37,3.73,2.3,2.3,0,0,0-2.37-.59c-.43.11.15-1.11.15-1.11a1.69,1.69,0,0,0-.34-1.11c-.38-.59-1.41-1.17-1.47-1.92.63,0,1.51.45,1.47-.26a2.86,2.86,0,0,0-.64-1.17,2.42,2.42,0,0,1-.24-.4c.69.25,1.15,1.53,1.66.49.35-.72-.12-1.78.25-2.5a1.34,1.34,0,0,1,1.77-.52c.26.21.32.67.54.94s.54.3.7.66a3.65,3.65,0,0,0-.75,1.07.65.65,0,0,0,.72-.06C381.17,297.16,380.41,298,380.71,298.74Zm13.2-41.48c.19-.32.8-.37,1.32-.47,0-.6-.23-1.38.26-1.67.4,1.38,1-.42,1.75-.36C398.19,256.49,395.49,259.57,393.91,257.26ZM409,237.18c-1.56.53-.67,1.73-1.82,1-2-1.3,1.92-3.3,3.41-1.11C409.85,238,409.75,236.91,409,237.18Zm19.24,66.27c-.74,1.34-6.2-2-6.87-2.54-2.11-1.75-3.23-4.58-5.48-6.13-1-.71-2.21-.74-3-2a3.55,3.55,0,0,1,3.92.67c.18-1.27-.48-2.29-.65-3.44a6.41,6.41,0,0,1,1.36,1.62c.6-3.6,4,3.64,4.61,4.26a9.63,9.63,0,0,1,.54-4.12,3.33,3.33,0,0,1,1.17,3.37c.63-.71,1.25-1.41,1.89-2.09q.5-.53,1-1c.57-.57,2-1.53,2.34-2a5.89,5.89,0,0,0-1.38,2.2c.43,0,1.23.38,1.74.29a7.44,7.44,0,0,0-1.29,2.67c1.55,0,2.67-1,4.17-1.18C432.75,299,430.29,299.71,428.22,303.44Zm8.48-12.69a6.46,6.46,0,0,1-.22-1.39,6.33,6.33,0,0,1,1.36-.17c-.11-1-.54-1.91-.68-2.89,2.61.43.55-3.07.79-4.29.37.36,1.28,1.2,1.33,1.75-.06-.75,1.06-3.28,1.92-3.31a6.55,6.55,0,0,1-.61,3.14c-.07.16-.84,2.59-.78,2.59,1.06,0,1.53-.32,1.22.93s-.66.38-1.72.51c-.05.74.55,1.26.84,1.88a5.84,5.84,0,0,1,.63,2.44c-.12.9-1.3,1.85-2,2.36a22.06,22.06,0,0,0-1.8,1.31c-.33.31-.86,1.22-1.4,1.15s-.17-1.7-.15-2.23a10.87,10.87,0,0,0,.15-2.48c-.14-.74-.66-1.3-.64-2.09C435.63,289.82,436,290.72,436.7,290.75Zm19.75,26.39c-.17.53-2.73,5.45-3.51,4.84-4-3.12-6.36-7.63-9.3-11.62a12.15,12.15,0,0,0-1.75-2c-1.85-1.16-7.45-1.71-8-4-.66-2.81,3-5,4.78-6.42a11.38,11.38,0,0,0,2.91-4.31,12.57,12.57,0,0,0,1-2.19c.06-.25-.06-2.35.16-2.39a12.79,12.79,0,0,0,2.07-.85,7,7,0,0,1,2.58.07,6.32,6.32,0,0,0-1.13-1.66c1.71-1,1.62,1.12,3,1.15.22-.54.12-1.19.43-1.66a21.71,21.71,0,0,1,2,2.16,5.09,5.09,0,0,1,.91,2.11,1.14,1.14,0,0,1-.11.88c-.06.09-.71.43-.69.5-.36-1.06-.09-3.44-1.77-3.41-.43.91.61,1.45.32,1.74-1.08.76-4.15-1-4.51.69a4.92,4.92,0,0,1,3.43,1.4c-1.12,1.33-3.77-1-4.19.9,2.48,1.37-1.23,1.21-1.78,2.19,1.17.34.5.75.32,1.74.83,0,1.75-.88,2.58-.23-1.25.57-3.19.64-2.53,2.5,1.43.93,3-.36,4.73-.79a31.13,31.13,0,0,0-1.43,6.92c1.18-.47,2.4-2.64,3-3.88,1,1,.7,2.36.74,3.64.52-.61,1.14-1.38,1.74-2.18.26,3.2,3.4,5.07,4.18,8.1A10.83,10.83,0,0,1,456.44,317.14Zm6.27-19.8a11.67,11.67,0,0,0-1.32,1.39,3.2,3.2,0,0,0-1.19,2.44,3.77,3.77,0,0,0-1.22.11c.09.44.48.74.73,1.13-.78.3-2.8,1-2.06,2.34.47-.18.59-.61,1-.72l.6.09c.21,0,.42-.19.67-.19,1,0,1.21,1,1.5,1.75a2.55,2.55,0,0,1-.27,2.5c-.35.61-.75,2.19-1.46,2.41-.69-.79-1.16-1.8-1.83-2.63s-1.54-1.8-2.19-2.8a20.67,20.67,0,0,1-1.15-2.71c.37.09.88.1,1.25.21.58.18.91.64.71-.29a4.18,4.18,0,0,0-1.7-1.86,3,3,0,0,1,1.88.74c.39.25-.7-2.77-.72-2.64.08-.5.87-.75,1.06-.85.46-.23,1-.29,1.36-.73s.31-1,.88-1.09c.12.52.31,1.53.94,1.64,0-.16.08-.36.13-.55a1.11,1.11,0,0,1,.6-.84c0,.24,0,.88.2,1.06.42.37.38,0,.73-.09.67-.18,1.34-.45,2-.64C463.76,297.15,463.1,297.07,462.71,297.35Zm1.74-14.59c-.35-.18-.6-.89-.76-1.31-.88.43-1.15,1.63-1.8,2.06a2.75,2.75,0,0,0-1.5-2.06,6.27,6.27,0,0,0-.34,3.85,11.13,11.13,0,0,1-3-.37c-.18.79.19,1.17,1,1.35a6.06,6.06,0,0,0-.5,2.14c-1.18-.6-1.66-1.35-3.14-1.23a12,12,0,0,1,0,2.3c-1.12-.18-1.88-1.35-2.47-2.21-.79-1.16-1.78-1-2.88-1.67,1-1.07,2.65.27,3.72.55.27.07-.29-1.14-.37-1.24-.29-.34-.61-.72-1.12-.52.43-.22.49-.81.62-1.32a1.85,1.85,0,0,1,.19-.49c-.57.23-1.08.65-1.65.89.67-.91-.61-1.58-.35-2.32.33-.92,1.28,0,1.66.33a4.09,4.09,0,0,0-.47-1.61l-.09,0a.13.13,0,0,1,0-.15s.06.08.09.12c.77-.34,2.34.37,3.06.62.88.3,1.43,1.44,2.09,2,.86-1.05-.25-3.21-1.16-4,.64-.16,1.26.5,1.42,1.06a2.79,2.79,0,0,0,.44-1.63c.4,0,1.53,1.31,1.27,1.52.55-.45.94-1.34,1.83-1.22-.48.41-1.44,1.67-1.14,2.31a20.11,20.11,0,0,0,3.34-1.21c.29.46.84.66,1.25,1s.63.76,1.07.93A8.48,8.48,0,0,1,464.45,282.75Zm9.84,2.32a3.22,3.22,0,0,0-.54.82c0,.08-.94,1.84-1.09,1.58a1.44,1.44,0,0,0-1.17-.76,8.35,8.35,0,0,1-1.43-.12c.3-.84,1-1.65.55-2.64a4,4,0,0,1-.72.31c-.19-.73-.21-1.49-.36-2.23-.75.28-1.19,1.13-1.8,1.63-.28-.61,0-1.36-.31-2a2.19,2.19,0,0,0-1.75-.88c1.08.14.68-1.5.64-2,.48.23.89.86,1.39,1.15a13.48,13.48,0,0,0,.45-2.73,1.34,1.34,0,0,0,1.71.34c.36.35,1.53,1.11,2,.92a5.47,5.47,0,0,1-.31,2.72,1.88,1.88,0,0,1,1.32-.66,2.05,2.05,0,0,1,.7.44,2.36,2.36,0,0,1,0,.38,3.52,3.52,0,0,0-1.57,1.93,3.8,3.8,0,0,1,2.62.54A6.32,6.32,0,0,0,474.29,285.08ZM480,228c-.46-.47-.31-1-.32-1.53h0c.65,0,1.24-.28,1.36.44C481.12,227.21,480.57,227.64,480,228Zm12,1.4c-.5.09-.69.92-1.14,1.06-1.05.33-3-.76-3-1.3,0-1.38,3.16-.72,4.34-1.18C491.35,228.4,490.63,229.3,492,229.39Zm15.16,11.07a2.77,2.77,0,0,1-2.48-1.26A2.37,2.37,0,0,1,507.11,240.46Zm-1.62,2.89c.46-.18.88-.87,1.43-.51-.59.79.67.51.43,1.14-1.15-.61-2.11,0-3.08.76C503.91,243.28,505.22,243.45,505.48,243.35Zm-.26,45.42a25.48,25.48,0,0,0,.37,2.87C504.3,291.6,503.53,288.87,505.22,288.77Zm4.35-41.44.18.73-.48.59a1.14,1.14,0,0,1,.55,1c0,.29-1-.07-1.11-.11-.46-.24-.77-.75-1.28-.23-.13-.46-.57-.52-1-.56s-.16.3-.45.07c-.11-.09-.16-.56-.17-.69-.07-.89.79-1,1.3-.38a2.06,2.06,0,0,1,.11-1.06c.24-.39.59-.32,1-.49l.54.3c.1-.35.45-.56.37-1C509.95,245.69,510.84,246.78,509.57,247.33Zm13.34,52.91c0-.4,0-.8-.07-1.21.59-.64,2.74.38,2.64,1.2C524.85,300.32,523.51,300.61,522.92,300.24Zm5.91-1c-.44-.51-.26-1,.27-1.46C531.29,296,529.94,300.52,528.83,299.25Z" transform="translate(-359.6 -206.19)"/><path class="cls-1" d="M533.57,273.34c.65-.08.93,2,1,2.34.27.84.72,1.61.94,2.49a.64.64,0,0,0,.55-.18c.54-.54.35-2.12.26-2.64A2.39,2.39,0,0,0,533.57,273.34Z" transform="translate(-359.6 -206.19)"/><path class="cls-1" d="M379.49,262.54c.34-1.92-2.68-2.6-2.89-1.6S378.09,262.38,379.49,262.54Z" transform="translate(-359.6 -206.19)"/><path class="cls-1" d="M458.26,359.84v2.63h2.05v17.94h3V369.14C463.15,366.75,461.78,361.2,458.26,359.84Z" transform="translate(-359.6 -206.19)"/><path class="cls-1" d="M509.22,372.08a12.77,12.77,0,0,1,1.38-1.19,3.49,3.49,0,0,0,1.06-1,4.71,4.71,0,0,0,.54-2,.56.56,0,0,1,0-.06v-5.36h2v-2.62h-7.05v2.63h2Z" transform="translate(-359.6 -206.19)"/><path class="cls-1" d="M518.81,377.88V371.2h3.31v-2.55h-3.18c-1.54.13-13,1.53-13.26,13.87a19.39,19.39,0,0,0,1.37,7.84,6.92,6.92,0,0,0,4.21,4.29c.81.26,2.35.19,2.85-.63.4-.67.34-1.5-.56-1.59s-.93,1.07-1.66,1.41-1.67-.32-2.21-.78a8.22,8.22,0,0,1-1-1,10.09,10.09,0,0,1-1.76-3.9,20.65,20.65,0,0,1-.69-4.38q0-.61,0-1.21a13.34,13.34,0,0,1,3-8.73v6.62h3v-9.13a14.71,14.71,0,0,1,2.25-1.1,1.16,1.16,0,0,1,1,.09,1.1,1.1,0,0,1,.37,1,.83.83,0,0,0,0,.17v8.94h6.59v-2.55Z" transform="translate(-359.6 -206.19)"/><path class="cls-1" d="M518.81,362.51h3.48v-2.6h-6.47v8.66a19.23,19.23,0,0,1,3-.54Z" transform="translate(-359.6 -206.19)"/><path class="cls-1" d="M415.37,364.53v11.3a6.29,6.29,0,0,1-.48,2.56,3.58,3.58,0,0,1-1.39,1.65,4.05,4.05,0,0,1-2.17.56,3.75,3.75,0,0,1-2.17-.61,3.71,3.71,0,0,1-1.35-1.84,8.45,8.45,0,0,1-.46-2.95V364.88a6.05,6.05,0,0,1,1.06-3.83,3.61,3.61,0,0,1,3-1.35,3.83,3.83,0,0,1,2.11.57,3.63,3.63,0,0,1,1.36,1.65A6.49,6.49,0,0,1,415.37,364.53Zm-5.06-.6v12.23a3,3,0,0,0,.26,1.46.9.9,0,0,0,.84.43q1,0,1-1.57V363.56q0-1.28-1.11-1.28T410.3,363.93Z" transform="translate(-359.6 -206.19)"/><path class="cls-1" d="M429.77,359.89h3.62a4.7,4.7,0,0,1,2.32.54,3.53,3.53,0,0,1,1.47,1.57,5.6,5.6,0,0,1,.51,2.48v5.67a4.8,4.8,0,0,1-.45,2.15,3.14,3.14,0,0,1-1.33,1.4,4.16,4.16,0,0,1-2,.48h-1.15v6.25h-3Zm3,2.65v9.12h.67q1.31,0,1.31-1.65v-5.92a1.76,1.76,0,0,0-.32-1.2,1.47,1.47,0,0,0-1.1-.35Z" transform="translate(-359.6 -206.19)"/><path class="cls-1" d="M479.09,366h-3v-1.72a2,2,0,0,0,0-.35q0-1.62-1-1.62a1.09,1.09,0,0,0-1,.43,2.37,2.37,0,0,0-.3,1.35v12.55a1.65,1.65,0,0,0,.32,1,1,1,0,0,0,1.59.07,1.29,1.29,0,0,0,.3-.87v-3.1h3v2.6a5.08,5.08,0,0,1-.28,1.73,3.65,3.65,0,0,1-2.16,2.21,4.61,4.61,0,0,1-1.68.3,4,4,0,0,1-2.11-.55,3.7,3.7,0,0,1-1.41-1.59,5.44,5.44,0,0,1-.5-2.4v-11.5a6.24,6.24,0,0,1,.5-2.6,3.67,3.67,0,0,1,1.43-1.66,4.17,4.17,0,0,1,2.23-.57,4.25,4.25,0,0,1,2.09.51,3.5,3.5,0,0,1,1.41,1.42,4.46,4.46,0,0,1,.49,2.15Z" transform="translate(-359.6 -206.19)"/><path class="cls-1" d="M480.64,359.89h4.08a3.7,3.7,0,0,1,2.91,1.13,4.75,4.75,0,0,1,1,3.27v1.85a4.42,4.42,0,0,1-.49,2.33,2.66,2.66,0,0,1-1.68,1.09v0a3.84,3.84,0,0,1,1.28.68,2.15,2.15,0,0,1,.68,1.05,5.69,5.69,0,0,1,.2,1.62v7.47h-3v-8a1.55,1.55,0,0,0-.41-1.13,1.44,1.44,0,0,0-1.08-.42h-.53v9.59h-3Zm3,2.63v5.82a3.78,3.78,0,0,0,1.61-.25.89.89,0,0,0,.43-.85v-3.62a1,1,0,0,0-.35-.82,1.56,1.56,0,0,0-1-.28Z" transform="translate(-359.6 -206.19)"/><path class="cls-1" d="M493.5,359.71h2.6l3.12,20.72h-2.92l-.28-2.7h-2.48l-.29,2.7h-3Zm1.26,6.85-1,8.68h1.92l-.92-8.68Z" transform="translate(-359.6 -206.19)"/><path class="cls-1" d="M536.88,380.57a4.25,4.25,0,0,0,1.88-.4l0-.12a5.1,5.1,0,0,0,0-1c-.06-.6-.11-1.18-.2-1.77a5.43,5.43,0,0,0-.65-2.34c0,.1,0,.19,0,.29v.93a3.36,3.36,0,0,1-.21,1.45.81.81,0,0,1-.79.4.77.77,0,0,1-.63-.28,1.14,1.14,0,0,1-.22-.75v-2.67h-3v2a4.52,4.52,0,0,0,1,3.12A3.59,3.59,0,0,0,536.88,380.57Z" transform="translate(-359.6 -206.19)"/><path class="cls-1" d="M540.9,375.4a9.2,9.2,0,0,0-.5-3.29,5.33,5.33,0,0,0-.53-1.16,11.65,11.65,0,0,0-.92-1.22l-.56-.6a14.69,14.69,0,0,1-1.46-1.84A5.8,5.8,0,0,1,536,364a2.91,2.91,0,0,1,.21-1.29.75.75,0,0,1,.71-.4.78.78,0,0,1,.63.29,1.26,1.26,0,0,1,.23.81v2.5h3v-2.22a3.58,3.58,0,0,0-3.92-3.93,3.33,3.33,0,0,0-2.77,1.21,5.44,5.44,0,0,0-1,3.46,9.07,9.07,0,0,0,.23,2.14,7.15,7.15,0,0,0,.76,1.87,13,13,0,0,0,1.42,2c.3.35.61.7.9,1.05a25.68,25.68,0,0,1,2,2.45,7.16,7.16,0,0,1,.94,3.22,13.85,13.85,0,0,1-.14,4.94,4.19,4.19,0,0,1-1.56,2.13,4.1,4.1,0,0,1-4.08.52c-1.45-.68-1.81-2.15-1.81-3.62,0-.27,0-.63,0-1V373a5.69,5.69,0,0,0-.2-1.62,2.16,2.16,0,0,0-.68-1.05,3.82,3.82,0,0,0-1.28-.68v0a2.65,2.65,0,0,0,1.68-1.09,4.42,4.42,0,0,0,.5-2.33v-1.85a4.75,4.75,0,0,0-1-3.27,3.7,3.7,0,0,0-2.91-1.13h-4.08v20.54h3v-9.59h.53a1.44,1.44,0,0,1,1.08.42,1.56,1.56,0,0,1,.41,1.13v7.45a3.57,3.57,0,0,0,0,.5s0,.09,0,.09a6.57,6.57,0,0,0,1.27,3.06,4.59,4.59,0,0,0,.82.88,5.64,5.64,0,0,0,3.92,1,5.44,5.44,0,0,0,4.35-2.2C540.69,381.35,541.07,377.53,540.9,375.4Zm-12.12-8.16a.89.89,0,0,1-.43.85,3.78,3.78,0,0,1-1.61.25v-5.82h.7a1.55,1.55,0,0,1,1,.28,1,1,0,0,1,.35.82Z" transform="translate(-359.6 -206.19)"/></svg>