<?xml version="1.0" standalone="no"?>
<!DOCTYPE svg PUBLIC "-//W3C//DTD SVG 20010904//EN"
 "http://www.w3.org/TR/2001/REC-SVG-20010904/DTD/svg10.dtd">
<svg version="1.0" xmlns="http://www.w3.org/2000/svg"
 width="802.000000pt" height="677.000000pt" viewBox="0 0 802.000000 677.000000"
 preserveAspectRatio="xMidYMid meet">
<metadata>
Created by potrace 1.12, written by Peter Selinger 2001-2015
</metadata>
<g transform="translate(0.000000,677.000000) scale(0.100000,-0.100000)"
fill="#000000" stroke="none">
<path d="M3373 6530 c-17 -7 -23 -18 -23 -40 0 -24 -6 -33 -27 -41 -16 -5 -36
-20 -45 -32 -14 -18 -19 -20 -29 -9 -18 17 -59 15 -59 -3 0 -11 -7 -13 -29 -9
-21 5 -38 0 -59 -15 -32 -22 -57 -30 -30 -8 18 13 36 87 21 87 -5 0 -15 -6
-22 -12 -10 -11 -10 -8 -2 15 6 16 11 35 11 43 0 21 -39 17 -90 -8 -53 -27
-69 -61 -69 -150 l-1 -57 -47 5 c-93 10 -131 -41 -73 -96 l31 -29 -28 -7 c-15
-3 -36 -8 -47 -11 -16 -4 -17 -1 -11 26 5 24 3 31 -9 31 -32 0 -66 -20 -88
-54 l-24 -35 -27 30 c-20 23 -33 30 -54 27 -49 -5 -42 -40 21 -109 31 -33 56
-64 56 -70 0 -19 -20 -8 -52 27 -32 35 -34 36 -93 31 -101 -8 -175 -56 -175
-114 l0 -33 55 0 c38 0 55 -4 55 -13 0 -22 -52 -95 -77 -108 -29 -16 -26 -41
5 -49 23 -5 23 -5 -7 -34 -17 -17 -31 -40 -31 -53 0 -26 5 -27 49 -12 53 19
60 0 23 -70 -35 -65 -41 -120 -16 -145 24 -24 38 -20 96 30 65 56 85 67 93 54
8 -13 52 -13 60 0 15 25 24 5 24 -51 -1 -42 3 -66 14 -76 22 -22 43 -10 51 29
7 31 8 32 21 14 9 -12 15 -42 15 -74 0 -52 1 -54 23 -48 55 16 77 18 77 8 0
-19 -56 -42 -100 -42 l-41 0 20 -26 c29 -37 19 -54 -25 -41 -32 10 -37 8 -68
-22 -41 -40 -90 -49 -139 -26 -41 19 -55 49 -35 73 9 11 14 41 13 82 l0 65
-62 7 c-34 4 -95 16 -136 27 -108 31 -152 28 -173 -11 -8 -15 -14 -14 -54 13
-53 36 -79 43 -125 35 -42 -8 -49 -41 -12 -56 15 -6 17 -9 6 -9 -31 -2 -69
-41 -69 -72 0 -34 13 -36 67 -14 52 22 61 19 69 -22 4 -21 17 -56 30 -79 13
-22 24 -49 24 -59 0 -17 -1 -17 -18 -2 -28 26 -37 21 -72 -33 -39 -60 -88 -93
-125 -84 -14 3 -25 2 -23 -2 4 -17 -13 -54 -25 -54 -7 1 -23 7 -37 15 -34 19
-99 19 -106 0 -9 -22 12 -42 51 -49 41 -8 46 -33 14 -62 -22 -20 -49 -66 -49
-84 0 -5 9 -10 19 -10 50 0 45 -64 -10 -134 -39 -50 -44 -54 -47 -34 -6 49
-12 55 -33 29 -24 -29 -24 -72 -2 -114 20 -39 26 -67 14 -67 -24 0 -61 21 -61
35 0 8 -7 15 -15 15 -17 0 -65 -43 -65 -59 0 -5 -14 -14 -30 -20 -32 -11 -60
-59 -60 -104 0 -14 -9 -36 -20 -50 -18 -23 -28 -25 -109 -29 -99 -3 -124 -15
-103 -48 6 -10 9 -26 6 -34 -3 -8 6 -32 20 -53 14 -21 26 -41 26 -44 0 -14
-59 -30 -119 -33 -39 -2 -66 -8 -71 -16 -7 -11 -11 -11 -24 -1 -28 24 -98 -38
-100 -89 -1 -25 -5 -30 -27 -30 -27 0 -49 -16 -49 -37 0 -7 9 -13 21 -13 55 0
78 -46 37 -74 -34 -24 -82 -20 -118 10 -29 25 -34 26 -69 15 -56 -16 -68 -14
-75 14 -4 14 -12 25 -19 25 -7 0 -18 27 -25 67 -7 38 -21 81 -31 98 -14 25
-23 30 -57 30 -35 0 -39 -3 -42 -27 -2 -15 4 -38 13 -51 15 -23 15 -25 -7 -31
-13 -3 -33 -6 -44 -6 -12 0 -27 -7 -35 -16 -16 -19 2 -34 43 -34 15 0 39 -5
54 -10 l27 -11 -51 -35 c-40 -27 -52 -40 -52 -60 0 -26 1 -26 65 -22 39 2 65
0 65 -6 0 -5 -9 -29 -21 -53 -20 -42 -21 -43 -67 -40 -43 2 -47 0 -50 -22 -2
-13 4 -41 13 -61 25 -56 17 -79 -40 -113 -54 -32 -65 -43 -65 -69 0 -22 27
-29 73 -19 20 5 37 7 37 5 0 -2 -9 -26 -20 -54 -24 -62 -26 -90 -4 -90 15 0
15 -3 -1 -26 -12 -19 -15 -37 -11 -64 5 -32 2 -39 -23 -57 -50 -37 -80 -183
-40 -191 9 -2 31 10 49 25 l33 27 -7 -29 c-4 -17 -10 -49 -13 -72 -4 -37 -2
-43 13 -43 10 0 28 10 40 21 l23 22 26 -32 c15 -17 36 -31 47 -31 17 0 20 5
16 40 l-4 41 36 -3 35 -3 -3 -49 c-3 -56 13 -86 32 -60 8 10 23 14 41 12 l30
-3 0 -70 c0 -38 4 -78 8 -87 7 -14 1 -19 -30 -27 -50 -14 -83 -38 -83 -61 0
-27 18 -34 45 -16 21 14 24 14 29 0 3 -9 6 -18 6 -20 0 -5 -64 -34 -74 -34 -3
0 -15 19 -27 42 -27 55 -58 88 -81 88 -20 0 -23 -21 -7 -52 10 -19 9 -20 -7
-13 -40 16 -63 16 -94 0 -39 -20 -60 -67 -60 -137 l0 -52 43 42 c23 23 45 42
49 42 3 0 8 -10 11 -21 4 -16 11 -20 25 -17 20 5 20 5 1 -37 -10 -23 -25 -72
-33 -109 -13 -63 -13 -66 5 -66 11 0 19 -4 19 -10 0 -5 -4 -10 -10 -10 -5 0
-14 -9 -21 -21 -10 -20 -9 -21 33 -16 23 3 55 8 70 12 23 6 29 3 37 -16 8 -20
3 -30 -32 -66 -23 -24 -49 -43 -58 -43 -10 0 -24 18 -37 50 -12 28 -25 50 -30
50 -14 0 -22 -38 -15 -71 5 -27 3 -29 -25 -29 -17 0 -37 -3 -46 -6 -24 -9 1
-52 35 -59 34 -8 36 -16 9 -40 -17 -15 -29 -65 -16 -65 3 0 21 10 41 21 58 35
65 15 31 -82 -24 -66 -27 -85 -18 -105 9 -17 20 -24 41 -24 33 0 46 13 57 55
l8 30 8 -32 c5 -21 19 -38 38 -48 43 -22 50 -19 50 23 0 31 5 40 30 54 27 15
30 22 30 65 0 26 -4 74 -10 106 -5 32 -6 67 -1 79 6 18 10 14 25 -25 18 -48
40 -64 62 -46 10 8 14 36 14 94 0 89 13 115 58 115 22 0 21 -2 -13 -71 -41
-80 -45 -141 -12 -147 46 -9 104 102 94 179 -4 31 -1 41 13 49 15 8 19 4 25
-26 6 -33 9 -36 35 -32 29 4 29 4 42 -70 19 -113 54 -110 84 7 19 77 12 99
-45 135 -22 14 -42 30 -45 35 -9 14 27 31 64 31 59 0 52 46 -13 89 -29 19 -34
27 -26 38 6 7 17 13 24 13 8 0 26 11 42 23 15 13 48 27 72 31 43 7 44 6 28
-12 -23 -25 -21 -32 7 -32 20 0 22 -4 18 -26 -4 -21 5 -35 43 -74 34 -34 47
-56 47 -76 1 -49 8 -74 22 -74 26 0 47 39 57 105 5 37 12 71 15 77 3 5 23 -7
45 -27 42 -38 95 -48 105 -20 5 12 12 10 36 -10 35 -30 51 -23 68 30 9 26 8
41 -3 68 -19 43 -31 51 -79 48 -39 -2 -57 15 -72 66 l-7 21 58 -17 c46 -13 59
-22 61 -39 4 -28 37 -44 130 -67 82 -20 122 -46 122 -80 0 -23 1 -23 28 -9 15
7 32 14 38 14 18 0 41 33 49 67 17 81 -36 102 -82 32 l-28 -42 -21 49 c-41 94
-41 92 16 96 41 2 50 0 50 -13 0 -27 26 -41 60 -34 26 6 31 3 41 -22 7 -19 7
-45 0 -87 -6 -33 -9 -62 -6 -64 2 -3 16 3 31 12 14 10 27 16 29 14 1 -2 10
-39 20 -83 18 -83 39 -135 55 -135 21 0 37 42 33 83 -4 31 -1 46 11 56 9 7 16
23 16 36 0 14 9 26 25 33 35 16 32 53 -7 97 l-31 36 36 -21 c83 -49 124 -1 68
77 l-30 42 27 3 c21 2 28 9 30 31 3 22 7 27 20 22 39 -17 108 -17 121 -2 25
31 -15 71 -100 101 l-44 15 37 1 c20 0 40 5 44 12 12 19 -60 77 -105 84 -35 6
-38 8 -28 25 9 15 7 23 -13 44 -28 30 -17 33 25 5 32 -21 75 -27 75 -10 0 6
-7 24 -15 40 -26 50 -10 34 45 -45 59 -87 78 -101 141 -110 77 -11 119 -42
167 -122 65 -108 150 -157 362 -207 91 -22 101 -27 234 -122 219 -156 328
-278 372 -419 12 -38 27 -58 59 -83 23 -18 55 -51 71 -74 53 -76 44 -237 -26
-463 -54 -172 -69 -231 -80 -322 -15 -115 -37 -152 -144 -238 -267 -214 -438
-285 -651 -270 -116 8 -143 8 -365 2 -91 -2 -177 -9 -192 -15 -38 -16 -178
-34 -283 -37 -102 -3 -173 -14 -181 -26 -6 -11 227 -10 391 0 71 5 210 4 340
-3 317 -16 413 -14 520 13 104 25 293 51 381 51 33 0 83 -7 110 -15 27 -8 115
-20 196 -25 121 -8 155 -7 195 5 26 8 109 19 183 25 74 5 151 14 170 20 45 13
247 13 325 0 33 -5 110 -15 170 -21 61 -6 135 -19 165 -30 35 -12 81 -19 130
-19 41 0 108 -7 148 -17 66 -15 81 -15 165 -2 64 10 106 12 137 5 28 -5 133
-4 282 3 131 7 280 9 333 5 68 -5 95 -4 95 5 0 6 -10 11 -22 11 -207 5 -641
31 -667 40 -23 9 -57 10 -110 5 -156 -15 -187 -10 -466 81 -143 47 -285 97
-315 112 -69 34 -196 159 -233 229 -68 127 -80 276 -60 743 12 284 21 326 90
417 44 57 53 89 53 179 0 65 22 168 39 187 7 7 29 -21 75 -95 30 -50 92 -47
79 3 -4 14 0 19 16 19 21 0 22 4 19 56 -4 66 15 84 35 34 12 -27 15 -29 27
-16 15 19 64 21 77 4 19 -25 22 -48 7 -62 -12 -13 -11 -17 8 -30 37 -26 62
-20 81 19 9 19 21 35 26 35 4 0 11 -22 15 -50 8 -62 29 -82 106 -103 88 -25
100 -23 100 14 0 30 -26 62 -80 99 -21 14 -21 18 -9 39 15 24 13 27 -37 57
-17 10 -17 12 5 24 20 10 25 10 33 -3 18 -33 145 -50 167 -23 8 9 8 21 2 39
-9 22 -7 25 17 30 21 4 37 -3 69 -29 l41 -34 30 34 30 34 37 -89 c20 -49 41
-91 45 -94 5 -3 17 7 27 22 13 20 18 45 17 92 l-2 66 25 -50 c33 -65 61 -95
90 -95 22 0 39 24 57 83 5 15 9 16 26 7 16 -9 22 -8 26 5 13 32 -5 117 -31
150 -14 19 -25 38 -25 43 0 17 52 20 86 6 41 -17 44 -17 44 1 0 7 -8 19 -17
24 -16 9 -16 10 -2 11 18 0 33 26 24 40 -3 5 -31 18 -63 30 -31 12 -63 27 -71
33 -21 18 23 25 83 14 92 -16 72 25 -33 67 l-72 29 22 23 c23 25 20 54 -6 54
-29 0 -53 -19 -76 -60 -13 -22 -26 -40 -30 -40 -4 0 -15 22 -24 50 -27 83 -76
105 -167 78 -33 -10 -41 -9 -55 5 -15 15 -15 18 0 35 41 45 1 90 -100 113 -35
8 -48 16 -42 23 4 6 22 28 39 48 49 58 35 65 -76 43 -27 -6 -34 -2 -62 33 -31
39 -32 41 -17 76 8 19 15 51 15 71 0 19 5 35 10 35 6 0 10 -5 10 -12 0 -6 13
0 28 15 16 15 39 27 53 26 l24 -1 -26 -11 c-45 -20 -59 -38 -59 -73 0 -19 2
-34 5 -34 17 0 92 45 107 63 l17 22 23 -23 c47 -43 63 -16 33 55 -8 19 -15 36
-15 38 0 1 19 8 42 14 41 13 43 12 70 -18 21 -23 28 -42 28 -71 0 -21 4 -41 9
-45 10 -6 31 54 31 90 1 19 1 19 14 2 7 -9 16 -35 20 -56 10 -63 86 -137 86
-84 0 15 1 15 14 -2 22 -30 44 -12 52 42 6 48 6 49 39 45 l33 -4 -14 -40 c-28
-81 -12 -148 33 -134 17 5 18 0 12 -62 -3 -37 -9 -74 -13 -83 -11 -25 14 -36
30 -13 26 37 35 44 58 44 13 0 30 7 37 16 11 14 10 21 -4 46 -24 41 -22 52 17
102 l34 44 6 -38 c3 -21 12 -40 18 -43 10 -3 7 -16 -9 -49 -15 -30 -23 -63
-23 -98 0 -52 0 -52 28 -48 15 3 35 9 45 13 16 7 19 3 17 -26 -3 -49 -2 -53
13 -40 11 8 13 5 9 -19 -2 -17 0 -30 6 -30 6 0 7 -14 0 -42 -11 -50 -4 -88 17
-88 8 0 15 4 15 8 0 13 108 140 129 151 16 9 18 8 14 -9 -8 -29 16 -116 37
-135 50 -45 97 14 107 134 5 62 8 69 21 59 27 -23 42 -76 42 -151 0 -41 3 -76
6 -79 21 -22 84 50 84 97 0 8 4 15 9 15 15 0 21 -29 10 -57 -10 -26 0 -42 25
-43 6 0 -2 -12 -16 -27 -45 -50 -58 -77 -58 -120 0 -37 3 -43 21 -43 12 0 47
20 77 45 30 25 58 42 61 39 3 -4 0 -9 -8 -12 -53 -18 -151 -151 -151 -203 0
-66 58 -62 122 10 42 46 45 48 54 27 12 -28 57 -33 81 -9 18 18 18 15 15 -84
-4 -85 -2 -103 10 -103 36 0 94 104 105 189 3 25 9 53 14 61 17 32 22 -23 9
-107 -7 -46 -10 -87 -6 -90 13 -14 36 23 42 68 7 54 19 70 29 39 10 -32 25
-13 26 33 0 23 4 50 8 60 6 16 9 16 31 -8 13 -14 27 -25 32 -25 15 0 60 112
55 137 -4 19 -2 21 15 12 16 -9 19 -17 14 -47 -22 -120 -18 -172 10 -172 17 0
44 57 44 92 0 13 4 30 9 37 8 12 12 10 22 -12 7 -15 15 -27 19 -27 12 0 31 83
28 120 -3 33 -1 35 27 37 17 0 39 4 50 8 15 4 28 -1 45 -18 14 -13 33 -27 44
-30 17 -7 17 -9 -8 -41 -50 -66 -20 -103 41 -52 28 23 28 23 29 2 1 -16 16
-64 30 -94 4 -9 34 13 39 29 10 30 23 23 56 -31 50 -82 89 -93 89 -26 0 60
-12 88 -61 141 -42 45 -41 49 5 57 46 7 20 39 -82 99 -45 27 -32 39 34 32 51
-5 56 -4 52 13 -2 10 -20 28 -41 40 -46 25 -102 90 -87 99 6 4 23 -7 37 -24
15 -17 35 -31 44 -31 19 0 32 26 22 43 -3 7 5 1 20 -12 27 -24 47 -21 47 8 0
21 -36 61 -55 61 -8 0 -15 7 -15 16 0 9 -14 32 -31 51 -33 39 -34 56 -1 61 26
4 27 13 7 53 l-16 30 40 -21 c22 -11 47 -20 56 -20 39 0 -2 107 -48 124 -29
11 -32 27 -12 79 10 25 -20 22 -71 -8 -41 -24 -43 -24 -49 -5 -8 26 -62 70
-86 70 -11 0 -22 -7 -25 -15 -7 -17 -13 -18 -33 -6 -12 8 -8 15 17 36 41 34
40 48 -3 74 -21 12 -35 28 -35 40 0 15 -10 23 -42 32 -24 6 -51 18 -61 27 -12
11 -37 17 -70 17 -50 0 -51 1 -58 35 -12 55 -71 92 -82 51 -3 -15 -17 -19 -73
-23 -38 -3 -76 -7 -84 -9 -9 -2 -14 2 -12 10 1 7 -1 18 -6 25 -20 25 -19 53 4
82 13 16 24 24 24 17 0 -7 24 -15 57 -19 50 -6 58 -4 74 15 22 27 37 27 41 -1
2 -17 9 -22 24 -20 11 1 32 -2 47 -7 33 -13 52 7 43 46 l-6 28 15 -25 c14 -23
24 -57 39 -122 4 -16 13 -28 21 -28 8 0 21 12 29 28 14 25 15 26 16 5 0 -27 7
-29 32 -7 15 14 20 15 34 4 13 -12 17 -11 25 1 23 37 -5 111 -55 144 l-25 17
26 28 26 29 42 -24 c51 -30 85 -33 85 -7 0 10 -3 22 -7 26 -4 3 -7 21 -7 38
-1 48 -53 80 -116 72 -31 -4 -50 -2 -54 5 -11 17 -46 13 -53 -6 -6 -14 -9 -12
-14 12 -4 17 -11 41 -15 55 l-7 24 28 -22 c15 -12 31 -22 34 -22 4 0 13 16 20
36 12 33 11 38 -11 62 -29 31 -58 73 -58 84 0 3 14 3 31 -2 27 -8 59 -5 59 7
0 2 -7 17 -15 34 -18 33 -69 69 -100 69 -15 0 -25 10 -33 33 -6 17 -25 49 -43
70 -24 30 -37 37 -65 37 -33 0 -41 -10 -35 -44 1 -4 -3 -24 -9 -42 -12 -36
-28 -41 -62 -23 -17 9 -19 17 -14 52 4 23 18 56 31 73 30 39 31 44 7 44 -10 0
-29 11 -42 25 -30 31 -41 31 -79 -1 -21 -17 -37 -23 -51 -19 -16 5 -20 2 -20
-15 0 -32 -18 -14 -30 30 -6 21 -18 47 -27 56 -9 9 -17 28 -18 43 0 19 -6 27
-21 29 -24 3 -80 -39 -89 -68 -4 -11 -11 -20 -18 -20 -8 0 -8 3 1 12 19 19 14
44 -15 78 -14 17 -27 45 -28 61 -2 16 -8 36 -15 44 -11 13 -8 15 14 15 29 0
31 3 15 31 -13 25 3 46 49 66 18 8 32 19 29 26 -6 19 -45 20 -87 3 -37 -15
-40 -15 -50 4 -16 29 -14 31 46 24 53 -7 56 -6 45 12 -26 46 -51 64 -103 75
-62 13 -148 48 -148 60 0 14 48 22 95 15 39 -6 45 -5 45 10 0 10 -10 28 -22
41 l-21 23 54 1 c30 1 65 4 78 8 l25 7 -28 21 c-27 21 -124 63 -149 63 -7 1 3
7 21 15 38 17 41 48 5 53 -54 8 -107 -36 -117 -97 -7 -44 -61 -15 -64 34 -2
19 -11 44 -21 54 -11 11 -22 33 -26 50 -6 28 -37 61 -57 61 -5 0 -8 -14 -8
-30 0 -36 -21 -48 -56 -32 -28 13 -31 34 -9 52 9 7 15 22 13 34 -3 20 -7 21
-106 42 -31 6 -20 20 22 28 24 5 33 11 30 21 -4 10 0 12 14 8 16 -4 21 1 24
19 3 24 19 28 71 15 37 -10 36 14 -3 47 -41 34 -106 42 -181 24 l-60 -15 -20
38 c-23 45 -53 68 -102 76 -60 9 -57 -14 7 -60 17 -13 16 -14 -15 -10 -19 2
-45 6 -59 9 -24 5 -24 6 -6 20 19 13 19 14 2 33 -10 11 -28 22 -40 24 l-21 4
23 8 c23 8 28 20 12 30 -7 4 -7 12 0 25 17 31 12 40 -22 40 -25 0 -41 -10 -74
-46 -48 -51 -43 -51 -122 13 -60 49 -93 60 -129 44 l-25 -11 26 -31 c14 -17
26 -38 26 -47 0 -19 -20 -54 -20 -36 0 6 -19 15 -42 20 -43 8 -43 8 -10 12 24
2 32 8 32 23 0 33 -41 43 -125 33 -73 -9 -75 -9 -75 11 0 24 -25 63 -34 54 -4
-4 -2 -37 3 -75 17 -122 19 -154 10 -154 -4 0 -13 9 -19 20 -9 16 -19 19 -57
16 -50 -4 -63 -17 -43 -41 10 -12 9 -16 -4 -21 -22 -8 -20 -30 4 -56 20 -22
18 -38 -5 -38 -18 0 -29 35 -26 83 1 21 -1 47 -4 58 -7 23 -33 25 -41 4 -4 -8
-13 -15 -20 -15 -23 0 -27 27 -10 52 9 12 16 28 16 36 0 19 -50 62 -71 62 -14
0 -19 7 -19 25 0 28 -32 65 -55 65 -20 0 -19 13 4 34 18 17 21 16 61 -28 24
-25 49 -46 56 -46 17 0 17 5 5 48 l-10 32 56 0 c39 0 54 4 51 13 -4 11 -56 54
-107 88 l-24 15 47 28 c36 21 46 32 44 49 -4 27 -42 33 -106 17 -40 -10 -48
-9 -63 7 -10 10 -24 36 -32 57 -21 61 -42 68 -77 27 l-29 -34 -45 17 c-25 10
-48 22 -51 26 -3 5 12 18 33 29 l38 20 -4 -30 c-5 -37 7 -37 72 1 83 49 91 57
76 75 -33 39 -112 59 -138 33 -6 -6 -24 -12 -39 -13 -15 -1 -43 -6 -60 -10
-42 -10 -42 1 2 56 19 24 35 47 35 52 0 16 -48 5 -81 -18 l-34 -26 -6 33 c-7
44 -16 58 -38 58 -25 0 -51 -32 -51 -64 0 -28 52 -140 70 -151 8 -5 7 -11 -1
-21 -9 -11 -9 -18 -1 -26 17 -17 15 -48 -2 -48 -8 0 -24 12 -36 27 -21 27 -22
28 -36 8 -9 -11 -14 -32 -12 -46 3 -20 -3 -31 -26 -47 -17 -12 -40 -24 -51
-28 -20 -8 -20 -8 -1 21 10 17 28 40 39 52 29 33 16 57 -27 49 -23 -5 -36 -3
-39 6 -3 10 -9 10 -24 2 -17 -11 -19 -9 -15 17 3 23 -3 35 -28 59 -49 45 -64
41 -56 -17 3 -27 7 -57 8 -68 2 -12 -4 -21 -14 -23 -13 -2 -18 3 -18 20 0 13
-3 33 -6 46 -9 32 -57 30 -81 -4 -50 -71 -61 -80 -82 -66 -12 6 -39 12 -61 12
-46 0 -47 3 -20 37 30 39 26 57 -10 50 -36 -8 -37 1 -10 62 11 24 19 46 17 47
-2 2 -23 -14 -48 -36 -41 -37 -44 -38 -52 -18 -6 16 -14 19 -37 16 -29 -4 -30
-4 -30 38 0 52 -8 74 -26 74 -16 0 -29 -43 -20 -66 7 -17 -10 -54 -24 -54 -6
0 -10 12 -10 28 0 40 -33 96 -64 107 -32 11 -55 0 -73 -35 -11 -21 -47 -49
-65 -50 -5 0 -8 20 -8 45 0 47 -6 51 -47 35z m-838 -673 c6 -24 -7 -71 -24
-81 -5 -4 -22 5 -38 18 l-28 24 29 31 c35 37 54 39 61 8z m2755 -182 c0 -8
-32 -35 -41 -35 -14 0 -11 38 4 43 11 4 37 -2 37 -8z m428 -76 c-11 -18 -11
-23 0 -26 22 -8 -17 -43 -47 -43 -14 0 -41 9 -58 20 -56 34 -41 52 52 61 33 3
61 7 63 7 1 1 -3 -8 -10 -19z m-3390 -331 c20 -20 14 -27 -21 -21 -28 4 -37 1
-55 -22 -18 -23 -24 -25 -37 -15 -19 16 -19 29 2 52 19 21 92 25 111 6z m4013
-128 c25 -14 25 -30 -1 -23 -24 6 -49 33 -31 33 7 0 21 -5 32 -10z m22 -149
c3 -13 0 -17 -12 -14 -9 2 -33 -5 -54 -16 -21 -11 -36 -14 -34 -8 2 6 10 14
18 17 12 6 71 36 75 39 1 1 4 -7 7 -18z m130 -153 c-28 -60 -31 -76 -20 -87
16 -16 -1 -27 -23 -13 -11 7 -29 12 -39 12 -11 0 -23 5 -26 10 -3 6 -17 10
-31 10 -17 0 -24 5 -24 19 0 25 17 36 34 22 11 -9 16 -5 25 20 9 26 15 31 36
27 19 -4 29 0 36 14 10 19 12 19 27 4 12 -12 13 -20 5 -38z m-4693 -369 c0
-60 -87 -114 -120 -74 -10 12 -7 15 14 21 20 5 26 12 26 34 0 22 4 27 18 23
10 -2 24 3 31 11 20 24 31 19 31 -15z m5465 -506 c28 -42 31 -55 12 -47 -21 8
-59 63 -52 74 9 15 12 13 40 -27z m-6227 -138 c18 -38 15 -47 -14 -43 -31 3
-50 28 -41 52 10 25 42 19 55 -9z m3825 -297 c47 -22 48 -24 43 -60 -3 -20 -9
-43 -12 -52 -6 -15 -3 -14 24 1 25 15 32 15 46 4 15 -13 15 -15 -4 -28 -11 -8
-27 -27 -35 -44 -15 -28 -15 -29 8 -29 13 0 38 -5 54 -11 37 -12 35 -29 -9
-101 -28 -46 -29 -46 -56 -32 -15 8 -38 14 -51 14 -20 0 -22 3 -16 23 4 12 8
36 9 52 1 23 -3 30 -16 29 -13 -1 -19 9 -24 42 -3 24 -11 44 -16 44 -5 0 -23
-13 -39 -29 l-29 -29 0 30 c0 20 -9 39 -27 56 -20 20 -27 35 -25 56 l4 28 23
-22 24 -23 5 27 c4 14 8 37 11 51 7 32 43 33 108 3z m-528 -24 l17 -26 25 24
26 23 -17 -32 c-18 -36 -21 -63 -6 -63 5 0 38 11 74 24 l65 23 47 -41 c40 -35
46 -45 37 -61 -10 -17 -11 -17 -18 4 -9 30 -35 23 -60 -16 -11 -18 -22 -32
-25 -32 -3 0 -12 14 -21 32 -19 40 -54 48 -63 15 -3 -13 -6 -49 -6 -81 l0 -59
-30 6 c-16 3 -43 9 -60 12 -27 5 -30 3 -30 -20 0 -14 7 -29 16 -34 12 -7 14
-17 9 -45 l-7 -37 -32 19 c-17 10 -45 22 -63 26 l-32 6 -3 -53 -3 -53 -62 65
c-38 39 -79 71 -105 81 -37 14 -40 17 -20 23 13 5 39 -1 68 -13 26 -12 50 -21
55 -21 18 0 8 41 -14 64 -17 17 -21 29 -16 47 13 47 11 51 -19 35 -28 -14 -29
-14 -40 18 -7 18 -12 38 -12 44 0 17 25 15 40 -3 21 -25 31 -17 24 20 -5 27
-3 35 9 35 37 0 106 -34 144 -72 24 -23 46 -38 50 -34 15 14 5 85 -16 123 -21
37 -21 38 -1 14 18 -21 23 -22 31 -10 5 7 9 22 9 32 0 25 15 21 35 -9z m-711
-111 c-4 -21 -18 -69 -31 -107 -29 -86 -29 -86 3 -86 22 0 25 -4 22 -27 -3
-25 -7 -28 -35 -25 -42 4 -42 -7 -3 -90 16 -34 30 -73 30 -85 0 -29 -38 -72
-105 -118 -30 -21 -62 -49 -70 -62 -17 -25 -45 -31 -45 -9 0 8 5 48 10 90 9
62 8 81 -5 112 -20 49 -19 58 7 40 36 -26 51 -21 43 14 -6 28 -5 30 24 30 34
0 35 7 10 84 -5 16 -9 30 -9 32 0 1 10 4 23 6 20 3 22 9 22 58 0 30 -3 69 -8
85 l-7 30 30 -35 c22 -27 30 -31 30 -17 0 29 51 117 67 117 2 0 1 -17 -3 -37z
m298 -242 c26 -30 47 -26 55 10 l6 30 39 -38 c62 -61 98 -153 64 -166 -10 -4
-15 7 -20 39 -8 61 -22 84 -51 84 -19 0 -25 -5 -25 -23 0 -13 5 -28 12 -35 14
-14 16 -14 -97 -16 -67 -1 -80 -4 -83 -18 -2 -13 3 -18 20 -18 32 -1 108 -36
108 -51 0 -8 -18 -10 -64 -5 -35 3 -71 4 -80 0 -20 -8 -21 -40 -1 -48 24 -9
18 -25 -12 -32 -61 -15 -110 -54 -68 -54 13 0 15 -7 9 -37 -6 -32 -5 -35 11
-30 9 4 29 10 43 13 18 3 13 -1 -15 -14 -43 -21 -59 -48 -48 -82 10 -31 79
-31 152 1 42 18 45 18 38 2 -16 -40 -46 -208 -43 -242 l3 -36 37 38 c20 20 47
55 59 77 13 22 26 40 30 40 10 0 19 -40 19 -95 l1 -50 38 43 38 44 6 -29 c7
-32 48 -101 107 -183 55 -76 73 -143 68 -246 -4 -72 -10 -94 -42 -157 -41 -82
-90 -147 -111 -147 -26 0 -173 171 -280 326 -160 233 -162 235 -308 283 -184
62 -217 89 -203 166 8 39 62 99 198 217 55 48 72 72 111 152 30 62 47 110 47
134 0 20 3 46 6 57 7 28 85 58 145 56 53 -1 61 9 33 40 -20 22 -10 43 14 30 9
-5 25 -19 34 -30z m2380 -128 c3 -40 3 -42 -13 -25 -27 28 -32 58 -12 78 20
20 20 20 25 -53z m-3642 -31 l17 22 30 -32 c16 -18 52 -70 79 -115 l49 -82 7
66 c4 36 12 77 17 90 9 23 10 22 31 -24 13 -30 19 -58 16 -73 -4 -13 -4 -24
-2 -24 3 0 43 39 90 87 67 70 83 83 79 62 -4 -23 -1 -27 27 -32 l32 -7 -20
-32 c-11 -18 -23 -43 -27 -55 -9 -31 15 -30 105 1 l70 25 0 -38 c0 -66 -29
-137 -88 -218 -31 -43 -66 -91 -76 -107 -16 -26 -22 -28 -59 -23 -54 7 -177
70 -233 120 -25 22 -71 74 -103 116 -73 95 -98 118 -168 156 -31 16 -59 36
-61 43 -6 21 78 15 117 -9 l34 -20 -5 48 c-3 26 -9 57 -13 68 -6 14 -1 12 14
-8 l23 -27 18 22z m-1910 -22 c0 -30 -27 -78 -51 -91 -17 -9 -25 -7 -45 12
-29 27 -30 39 -4 39 11 0 34 13 52 30 39 35 48 37 48 10z m5424 5 c-4 -9 -16
-21 -28 -27 -19 -10 -19 -9 3 16 28 30 33 32 25 11z m-5094 -127 c19 -27 21
-34 10 -51 -10 -17 -10 -23 5 -33 26 -19 16 -59 -15 -59 -22 0 -25 -4 -23 -33
1 -24 -2 -30 -10 -24 -7 5 -22 13 -34 16 -29 9 -30 -6 -5 -77 l19 -53 -34 4
c-31 4 -34 7 -29 28 8 29 -6 58 -46 100 l-29 31 31 -5 c27 -4 30 -1 30 21 0
16 7 26 20 30 17 4 20 14 20 59 0 30 5 59 12 66 21 21 53 13 78 -20z m3314
-100 c16 -32 33 -33 41 -1 l7 28 9 -24 c7 -18 14 -22 34 -17 14 4 25 4 25 2 0
-3 -18 -26 -40 -52 -23 -25 -44 -59 -47 -75 -4 -22 -11 -29 -29 -29 -25 0 -32
-18 -14 -36 7 -7 -2 -18 -27 -35 -29 -18 -39 -32 -41 -57 -4 -35 3 -39 27 -18
9 7 32 16 53 19 44 7 60 -8 79 -71 11 -39 10 -47 -12 -95 -13 -28 -30 -62 -38
-75 -14 -22 -14 -22 -49 30 -20 29 -55 77 -79 107 -44 54 -74 105 -87 148 -7
21 -5 21 29 12 20 -6 40 -8 43 -4 4 3 -3 24 -14 45 -20 35 -20 38 -3 27 29
-18 31 -4 11 57 l-19 57 48 25 c27 13 53 33 59 45 13 22 17 21 34 -13z m-2400
-38 c22 -17 50 -30 63 -30 20 0 23 -5 23 -40 0 -48 16 -58 59 -36 16 9 43 15
58 15 27 -2 27 -2 3 -6 -33 -6 -50 -21 -50 -44 0 -12 -7 -19 -19 -19 -14 0
-17 -6 -13 -26 3 -15 1 -25 -4 -23 -70 32 -83 43 -67 54 24 17 7 35 -33 35
-44 0 -84 37 -84 77 0 15 -3 38 -6 51 -9 32 22 29 70 -8z m5335 -23 c-14 -30
-36 -35 -46 -10 -4 10 2 23 17 35 29 24 45 10 29 -25z m-219 -39 l35 -22 -35
-7 c-48 -11 -70 -3 -70 27 0 31 23 31 70 2z m-6150 -209 c0 -13 8 -23 21 -26
16 -5 19 -11 14 -32 -4 -14 -8 -28 -10 -29 -8 -9 -25 11 -25 29 0 11 -8 22
-17 26 -39 14 -46 26 -21 39 32 18 38 17 38 -7z"/>
<path d="M942 4267 c-26 -31 14 -67 91 -81 33 -6 37 -5 37 13 0 52 -98 104
-128 68z"/>
<path d="M7487 3728 c5 -7 22 -52 38 -101 15 -48 31 -90 35 -92 17 -10 39 8
45 36 18 81 -32 169 -95 169 -24 0 -30 -3 -23 -12z"/>
</g>
</svg>
